<svg width="56" height="56" viewBox="0 0 56 56" fill="none" xmlns="http://www.w3.org/2000/svg">
<path fill-rule="evenodd" clip-rule="evenodd" d="M12.3947 25.109C19.2034 13.0363 22.6077 7 28 7C33.39 7 36.7967 13.0363 43.6054 25.109L44.4547 26.614C50.113 36.6473 52.9434 41.664 50.386 45.332C47.8287 49 41.5007 49 28.8494 49H27.1507C14.4994 49 8.17137 49 5.61403 45.332C3.0567 41.664 5.88703 36.6473 11.5454 26.614L12.3947 25.109ZM28 16.9167C28.4642 16.9167 28.9093 17.101 29.2375 17.4292C29.5657 17.7574 29.75 18.2025 29.75 18.6667V30.3333C29.75 30.7975 29.5657 31.2426 29.2375 31.5708C28.9093 31.899 28.4642 32.0833 28 32.0833C27.5359 32.0833 27.0908 31.899 26.7626 31.5708C26.4344 31.2426 26.25 30.7975 26.25 30.3333V18.6667C26.25 18.2025 26.4344 17.7574 26.7626 17.4292C27.0908 17.101 27.5359 16.9167 28 16.9167ZM28 39.6667C28.6189 39.6667 29.2124 39.4208 29.6499 38.9832C30.0875 38.5457 30.3334 37.9522 30.3334 37.3333C30.3334 36.7145 30.0875 36.121 29.6499 35.6834C29.2124 35.2458 28.6189 35 28 35C27.3812 35 26.7877 35.2458 26.3501 35.6834C25.9125 36.121 25.6667 36.7145 25.6667 37.3333C25.6667 37.9522 25.9125 38.5457 26.3501 38.9832C26.7877 39.4208 27.3812 39.6667 28 39.6667Z" fill="#F1416C"/>
</svg>
