<svg width="23" height="20" viewBox="0 0 23 20" fill="none" xmlns="http://www.w3.org/2000/svg">
<path d="M0.769254 0.769254V0C0.565235 0 0.369572 0.0810461 0.225309 0.225309C0.0810462 0.369572 0 0.565235 0 0.769254H0.769254ZM12.0516 0.769254H12.8209C12.8209 0.565235 12.7399 0.369572 12.5956 0.225309C12.4513 0.0810461 12.2557 0 12.0516 0V0.769254ZM12.0516 6.92329V6.15403C11.8476 6.15403 11.652 6.23508 11.5077 6.37934C11.3634 6.5236 11.2824 6.71927 11.2824 6.92329H12.0516ZM0.769254 1.53851H12.0516V0H0.769254V1.53851ZM11.2824 0.769254V17.18H12.8209V0.769254H11.2824ZM1.53851 15.1287V0.769254H0V15.1287H1.53851ZM12.0516 7.69254H17.18V6.15403H12.0516V7.69254ZM20.5134 11.026V15.1287H22.0519V11.026H20.5134ZM12.8209 17.18V6.92329H11.2824V17.18H12.8209ZM18.0867 18.0867C17.9676 18.2058 17.8263 18.3003 17.6707 18.3647C17.5151 18.4292 17.3484 18.4623 17.18 18.4623C17.0116 18.4623 16.8449 18.4292 16.6893 18.3647C16.5337 18.3003 16.3924 18.2058 16.2733 18.0867L15.1861 19.1739C15.7151 19.7028 16.4325 20 17.1805 20C17.9286 20 18.646 19.7028 19.1749 19.1739L18.0867 18.0867ZM16.2733 16.2733C16.3924 16.1542 16.5337 16.0598 16.6893 15.9953C16.8449 15.9309 17.0116 15.8977 17.18 15.8977C17.3484 15.8977 17.5151 15.9309 17.6707 15.9953C17.8263 16.0598 17.9676 16.1542 18.0867 16.2733L19.1739 15.1861C18.645 14.6572 17.9275 14.36 17.1795 14.36C16.4314 14.36 15.714 14.6572 15.1851 15.1861L16.2733 16.2733ZM5.77864 18.0867C5.65958 18.2058 5.51823 18.3003 5.36265 18.3647C5.20708 18.4292 5.04034 18.4623 4.87194 18.4623C4.70355 18.4623 4.5368 18.4292 4.38123 18.3647C4.22566 18.3003 4.08431 18.2058 3.96525 18.0867L2.87804 19.1739C3.407 19.7028 4.12441 20 4.87245 20C5.6205 20 6.33791 19.7028 6.86687 19.1739L5.77864 18.0867ZM3.96525 16.2733C4.08431 16.1542 4.22566 16.0598 4.38123 15.9953C4.5368 15.9309 4.70355 15.8977 4.87194 15.8977C5.04034 15.8977 5.20708 15.9309 5.36265 15.9953C5.51823 16.0598 5.65958 16.1542 5.77864 16.2733L6.86585 15.1861C6.33689 14.6572 5.61948 14.36 4.87143 14.36C4.12338 14.36 3.40597 14.6572 2.87701 15.1861L3.96525 16.2733ZM18.0867 16.2733C18.337 16.5236 18.4621 16.8508 18.4621 17.18H20.0006C20.0006 16.459 19.7247 15.7359 19.1749 15.1851L18.0867 16.2733ZM18.4621 17.18C18.4621 17.5092 18.337 17.8364 18.0867 18.0867L19.1749 19.1739C19.4372 18.9123 19.6442 18.6016 19.7861 18.2594C19.9279 17.9172 20.0008 17.5504 20.0006 17.18H18.4621ZM15.1287 16.4108H12.0516V17.9493H15.1287V16.4108ZM16.2733 18.0867C16.154 17.9678 16.0594 17.8265 15.995 17.6709C15.9305 17.5153 15.8975 17.3484 15.8979 17.18H14.3594C14.3594 17.9011 14.6353 18.6242 15.1851 19.1749L16.2733 18.0867ZM15.8979 17.18C15.8979 16.8508 16.023 16.5236 16.2733 16.2733L15.1851 15.1861C14.9228 15.4477 14.7158 15.7585 14.5739 16.1006C14.4321 16.4428 14.3592 16.8096 14.3594 17.18H15.8979ZM3.96525 18.0867C3.84593 17.9678 3.75133 17.8265 3.6869 17.6709C3.62247 17.5153 3.58948 17.3484 3.58985 17.18H2.05134C2.05134 17.9011 2.32725 18.6242 2.87701 19.1749L3.96525 18.0867ZM3.58985 17.18C3.58985 16.8508 3.71498 16.5236 3.96525 16.2733L2.87804 15.1861C2.61581 15.4477 2.40781 15.7585 2.26594 16.1007C2.12408 16.4428 2.05115 16.8096 2.05134 17.18H3.58985ZM12.0516 16.4108H6.92329V17.9493H12.0516V16.4108ZM5.77864 16.2733C6.0289 16.5236 6.15403 16.8508 6.15403 17.18H7.69254C7.69254 16.459 7.41663 15.7359 6.86687 15.1851L5.77864 16.2733ZM6.15403 17.18C6.15403 17.5092 6.0289 17.8364 5.77864 18.0867L6.86585 19.1739C7.12807 18.9123 7.33608 18.6015 7.47794 18.2594C7.6198 17.9172 7.69273 17.5504 7.69254 17.18H6.15403ZM20.5134 15.1287C20.5134 15.8364 19.9391 16.4108 19.2313 16.4108V17.9493C19.9794 17.9493 20.6968 17.6521 21.2258 17.1231C21.7548 16.5942 22.0519 15.8767 22.0519 15.1287H20.5134ZM17.18 7.69254C18.0641 7.69254 18.912 8.04374 19.5371 8.66888C20.1622 9.29402 20.5134 10.1419 20.5134 11.026H22.0519C22.0519 9.73385 21.5387 8.49466 20.625 7.58099C19.7113 6.66732 18.4721 6.15403 17.18 6.15403V7.69254ZM0 15.1287C0 15.8767 0.297169 16.5942 0.826134 17.1231C1.3551 17.6521 2.07253 17.9493 2.8206 17.9493V16.4108C2.11288 16.4108 1.53851 15.8364 1.53851 15.1287H0Z" fill="white"/>
</svg>
