<svg width="30" height="30" viewBox="0 0 30 30" fill="none" xmlns="http://www.w3.org/2000/svg">
<mask id="path-1-outside-1_738_5420" maskUnits="userSpaceOnUse" x="0.5625" y="1.8125" width="29" height="26" fill="black">
<rect fill="white" x="0.5625" y="1.8125" width="29" height="26"/>
<path d="M2.5 3.75V2.8125C2.25136 2.8125 2.0129 2.91127 1.83709 3.08709C1.66127 3.2629 1.5625 3.50136 1.5625 3.75H2.5ZM16.25 3.75H17.1875C17.1875 3.50136 17.0887 3.2629 16.9129 3.08709C16.7371 2.91127 16.4986 2.8125 16.25 2.8125V3.75ZM16.25 11.25V10.3125C16.0014 10.3125 15.7629 10.4113 15.5871 10.5871C15.4113 10.7629 15.3125 11.0014 15.3125 11.25H16.25ZM2.5 4.6875H16.25V2.8125H2.5V4.6875ZM15.3125 3.75V23.75H17.1875V3.75H15.3125ZM3.4375 21.25V3.75H1.5625V21.25H3.4375ZM16.25 12.1875H22.5V10.3125H16.25V12.1875ZM26.5625 16.25V21.25H28.4375V16.25H26.5625ZM17.1875 23.75V11.25H15.3125V23.75H17.1875ZM23.605 24.855C23.4599 25.0001 23.2876 25.1153 23.098 25.1938C22.9084 25.2724 22.7052 25.3128 22.5 25.3128C22.2948 25.3128 22.0916 25.2724 21.902 25.1938C21.7124 25.1153 21.5401 25.0001 21.395 24.855L20.07 26.18C20.7147 26.8246 21.589 27.1868 22.5006 27.1868C23.4123 27.1868 24.2866 26.8246 24.9313 26.18L23.605 24.855ZM21.395 22.645C21.5401 22.4999 21.7124 22.3847 21.902 22.3062C22.0916 22.2276 22.2948 22.1872 22.5 22.1872C22.7052 22.1872 22.9084 22.2276 23.098 22.3062C23.2876 22.3847 23.4599 22.4999 23.605 22.645L24.93 21.32C24.2854 20.6754 23.411 20.3132 22.4994 20.3132C21.5877 20.3132 20.7134 20.6754 20.0688 21.32L21.395 22.645ZM8.605 24.855C8.4599 25.0001 8.28764 25.1153 8.09804 25.1938C7.90844 25.2724 7.70523 25.3128 7.5 25.3128C7.29478 25.3128 7.09156 25.2724 6.90196 25.1938C6.71237 25.1153 6.5401 25.0001 6.395 24.855L5.07 26.18C5.71465 26.8246 6.58897 27.1868 7.50063 27.1868C8.41228 27.1868 9.2866 26.8246 9.93125 26.18L8.605 24.855ZM6.395 22.645C6.5401 22.4999 6.71237 22.3847 6.90196 22.3062C7.09156 22.2276 7.29478 22.1872 7.5 22.1872C7.70523 22.1872 7.90844 22.2276 8.09804 22.3062C8.28764 22.3847 8.4599 22.4999 8.605 22.645L9.93 21.32C9.28535 20.6754 8.41103 20.3132 7.49938 20.3132C6.58772 20.3132 5.7134 20.6754 5.06875 21.32L6.395 22.645ZM23.605 22.645C23.91 22.95 24.0625 23.3487 24.0625 23.75H25.9375C25.9375 22.8712 25.6013 21.99 24.9313 21.3187L23.605 22.645ZM24.0625 23.75C24.0625 24.1512 23.91 24.55 23.605 24.855L24.9313 26.18C25.2509 25.8612 25.5032 25.4825 25.6761 25.0655C25.849 24.6485 25.9378 24.2014 25.9375 23.75H24.0625ZM20 22.8125H16.25V24.6875H20V22.8125ZM21.395 24.855C21.2496 24.7101 21.1343 24.5379 21.0558 24.3482C20.9773 24.1586 20.9371 23.9553 20.9375 23.75H19.0625C19.0625 24.6287 19.3988 25.51 20.0688 26.1812L21.395 24.855ZM20.9375 23.75C20.9375 23.3487 21.09 22.95 21.395 22.645L20.0688 21.32C19.7491 21.6388 19.4968 22.0175 19.3239 22.4345C19.1511 22.8515 19.0622 23.2986 19.0625 23.75H20.9375ZM6.395 24.855C6.24959 24.7101 6.13429 24.5379 6.05577 24.3482C5.97725 24.1586 5.93705 23.9553 5.9375 23.75H4.0625C4.0625 24.6287 4.39875 25.51 5.06875 26.1812L6.395 24.855ZM5.9375 23.75C5.9375 23.3487 6.09 22.95 6.395 22.645L5.07 21.32C4.75043 21.6388 4.49693 22.0176 4.32404 22.4346C4.15115 22.8516 4.06227 23.2986 4.0625 23.75H5.9375ZM16.25 22.8125H10V24.6875H16.25V22.8125ZM8.605 22.645C8.91 22.95 9.0625 23.3487 9.0625 23.75H10.9375C10.9375 22.8712 10.6013 21.99 9.93125 21.3187L8.605 22.645ZM9.0625 23.75C9.0625 24.1512 8.91 24.55 8.605 24.855L9.93 26.18C10.2496 25.8612 10.5031 25.4824 10.676 25.0654C10.8489 24.6484 10.9377 24.2014 10.9375 23.75H9.0625ZM26.5625 21.25C26.5625 22.1125 25.8625 22.8125 25 22.8125V24.6875C25.9117 24.6875 26.786 24.3253 27.4307 23.6807C28.0753 23.036 28.4375 22.1617 28.4375 21.25H26.5625ZM22.5 12.1875C23.5774 12.1875 24.6108 12.6155 25.3726 13.3774C26.1345 14.1392 26.5625 15.1726 26.5625 16.25H28.4375C28.4375 14.6753 27.8119 13.165 26.6985 12.0516C25.585 10.9381 24.0747 10.3125 22.5 10.3125V12.1875ZM1.5625 21.25C1.5625 22.1617 1.92466 23.036 2.56932 23.6807C3.21398 24.3253 4.08832 24.6875 5 24.6875V22.8125C4.1375 22.8125 3.4375 22.1125 3.4375 21.25H1.5625Z"/>
</mask>
<path d="M2.5 3.75V2.8125C2.25136 2.8125 2.0129 2.91127 1.83709 3.08709C1.66127 3.2629 1.5625 3.50136 1.5625 3.75H2.5ZM16.25 3.75H17.1875C17.1875 3.50136 17.0887 3.2629 16.9129 3.08709C16.7371 2.91127 16.4986 2.8125 16.25 2.8125V3.75ZM16.25 11.25V10.3125C16.0014 10.3125 15.7629 10.4113 15.5871 10.5871C15.4113 10.7629 15.3125 11.0014 15.3125 11.25H16.25ZM2.5 4.6875H16.25V2.8125H2.5V4.6875ZM15.3125 3.75V23.75H17.1875V3.75H15.3125ZM3.4375 21.25V3.75H1.5625V21.25H3.4375ZM16.25 12.1875H22.5V10.3125H16.25V12.1875ZM26.5625 16.25V21.25H28.4375V16.25H26.5625ZM17.1875 23.75V11.25H15.3125V23.75H17.1875ZM23.605 24.855C23.4599 25.0001 23.2876 25.1153 23.098 25.1938C22.9084 25.2724 22.7052 25.3128 22.5 25.3128C22.2948 25.3128 22.0916 25.2724 21.902 25.1938C21.7124 25.1153 21.5401 25.0001 21.395 24.855L20.07 26.18C20.7147 26.8246 21.589 27.1868 22.5006 27.1868C23.4123 27.1868 24.2866 26.8246 24.9313 26.18L23.605 24.855ZM21.395 22.645C21.5401 22.4999 21.7124 22.3847 21.902 22.3062C22.0916 22.2276 22.2948 22.1872 22.5 22.1872C22.7052 22.1872 22.9084 22.2276 23.098 22.3062C23.2876 22.3847 23.4599 22.4999 23.605 22.645L24.93 21.32C24.2854 20.6754 23.411 20.3132 22.4994 20.3132C21.5877 20.3132 20.7134 20.6754 20.0688 21.32L21.395 22.645ZM8.605 24.855C8.4599 25.0001 8.28764 25.1153 8.09804 25.1938C7.90844 25.2724 7.70523 25.3128 7.5 25.3128C7.29478 25.3128 7.09156 25.2724 6.90196 25.1938C6.71237 25.1153 6.5401 25.0001 6.395 24.855L5.07 26.18C5.71465 26.8246 6.58897 27.1868 7.50063 27.1868C8.41228 27.1868 9.2866 26.8246 9.93125 26.18L8.605 24.855ZM6.395 22.645C6.5401 22.4999 6.71237 22.3847 6.90196 22.3062C7.09156 22.2276 7.29478 22.1872 7.5 22.1872C7.70523 22.1872 7.90844 22.2276 8.09804 22.3062C8.28764 22.3847 8.4599 22.4999 8.605 22.645L9.93 21.32C9.28535 20.6754 8.41103 20.3132 7.49938 20.3132C6.58772 20.3132 5.7134 20.6754 5.06875 21.32L6.395 22.645ZM23.605 22.645C23.91 22.95 24.0625 23.3487 24.0625 23.75H25.9375C25.9375 22.8712 25.6013 21.99 24.9313 21.3187L23.605 22.645ZM24.0625 23.75C24.0625 24.1512 23.91 24.55 23.605 24.855L24.9313 26.18C25.2509 25.8612 25.5032 25.4825 25.6761 25.0655C25.849 24.6485 25.9378 24.2014 25.9375 23.75H24.0625ZM20 22.8125H16.25V24.6875H20V22.8125ZM21.395 24.855C21.2496 24.7101 21.1343 24.5379 21.0558 24.3482C20.9773 24.1586 20.9371 23.9553 20.9375 23.75H19.0625C19.0625 24.6287 19.3988 25.51 20.0688 26.1812L21.395 24.855ZM20.9375 23.75C20.9375 23.3487 21.09 22.95 21.395 22.645L20.0688 21.32C19.7491 21.6388 19.4968 22.0175 19.3239 22.4345C19.1511 22.8515 19.0622 23.2986 19.0625 23.75H20.9375ZM6.395 24.855C6.24959 24.7101 6.13429 24.5379 6.05577 24.3482C5.97725 24.1586 5.93705 23.9553 5.9375 23.75H4.0625C4.0625 24.6287 4.39875 25.51 5.06875 26.1812L6.395 24.855ZM5.9375 23.75C5.9375 23.3487 6.09 22.95 6.395 22.645L5.07 21.32C4.75043 21.6388 4.49693 22.0176 4.32404 22.4346C4.15115 22.8516 4.06227 23.2986 4.0625 23.75H5.9375ZM16.25 22.8125H10V24.6875H16.25V22.8125ZM8.605 22.645C8.91 22.95 9.0625 23.3487 9.0625 23.75H10.9375C10.9375 22.8712 10.6013 21.99 9.93125 21.3187L8.605 22.645ZM9.0625 23.75C9.0625 24.1512 8.91 24.55 8.605 24.855L9.93 26.18C10.2496 25.8612 10.5031 25.4824 10.676 25.0654C10.8489 24.6484 10.9377 24.2014 10.9375 23.75H9.0625ZM26.5625 21.25C26.5625 22.1125 25.8625 22.8125 25 22.8125V24.6875C25.9117 24.6875 26.786 24.3253 27.4307 23.6807C28.0753 23.036 28.4375 22.1617 28.4375 21.25H26.5625ZM22.5 12.1875C23.5774 12.1875 24.6108 12.6155 25.3726 13.3774C26.1345 14.1392 26.5625 15.1726 26.5625 16.25H28.4375C28.4375 14.6753 27.8119 13.165 26.6985 12.0516C25.585 10.9381 24.0747 10.3125 22.5 10.3125V12.1875ZM1.5625 21.25C1.5625 22.1617 1.92466 23.036 2.56932 23.6807C3.21398 24.3253 4.08832 24.6875 5 24.6875V22.8125C4.1375 22.8125 3.4375 22.1125 3.4375 21.25H1.5625Z" fill="white"/>
<path d="M15.3125 23.85H17.1875V23.65H15.3125V23.85ZM1.5625 21.35H3.4375V21.15H1.5625V21.35ZM22.6 12.1875V10.3125H22.4V12.1875H22.6ZM26.5625 21.35H28.4375V21.15H26.5625V21.35ZM28.4375 16.15H26.5625V16.35H28.4375V16.15ZM25.0019 26.1093L23.6757 24.7843L23.5343 24.9257L24.8606 26.2507L25.0019 26.1093ZM19.9981 21.3907L21.3243 22.7157L21.4657 22.5743L20.1394 21.2493L19.9981 21.3907ZM24.0625 23.85H25.9375V23.65H24.0625V23.85ZM16.15 22.8125V24.6875H16.35V22.8125H16.15ZM20.9375 23.65H19.0625V23.85H20.9375V23.65ZM5.9375 23.65H4.0625V23.85H5.9375V23.65ZM9.0625 23.85H10.9375V23.65H9.0625V23.85ZM2.5 3.75V3.95H2.7V3.75H2.5ZM16.25 3.75H16.05V3.95H16.25V3.75ZM16.25 11.25V11.45H16.45V11.25H16.25ZM2.5 4.6875H2.3V4.8875H2.5V4.6875ZM16.25 4.6875V4.8875H16.45V4.6875H16.25ZM15.3125 3.75V3.55H15.1125V3.75H15.3125ZM3.4375 3.75H3.6375V3.55H3.4375V3.75ZM1.5625 21.25H1.3625H1.5625ZM16.25 12.1875H16.05V12.3875H16.25V12.1875ZM22.5 10.3125V10.1125V10.3125ZM17.1875 11.25H17.3875V11.05H17.1875V11.25ZM23.605 24.855L23.4636 24.7136L23.4636 24.7136L23.605 24.855ZM21.395 24.855L21.5364 24.7136L21.5362 24.7133L21.395 24.855ZM20.07 26.18L19.9286 26.0386L19.7872 26.18L19.9286 26.3214L20.07 26.18ZM22.5006 27.1868V27.3868V27.1868ZM24.9313 26.18L24.79 26.0384L24.7898 26.0386L24.9313 26.18ZM21.395 22.645L21.5364 22.7864L21.5364 22.7864L21.395 22.645ZM23.605 22.645L23.4636 22.7864L23.4636 22.7864L23.605 22.645ZM24.93 21.32L25.0714 21.4614L25.2129 21.32L25.0714 21.1786L24.93 21.32ZM22.4994 20.3132V20.1132V20.3132ZM20.0688 21.32L20.21 21.4616L20.2102 21.4614L20.0688 21.32ZM8.605 24.855L8.46358 24.7136L8.46356 24.7136L8.605 24.855ZM6.395 24.855L6.53644 24.7136L6.53616 24.7133L6.395 24.855ZM5.07 26.18L4.92858 26.0386L4.78716 26.18L4.92858 26.3214L5.07 26.18ZM7.50063 27.1868V27.3868V27.1868ZM9.93125 26.18L10.0727 26.3214L10.2142 26.1799L10.0726 26.0385L9.93125 26.18ZM6.395 22.645L6.53642 22.7864L6.53644 22.7864L6.395 22.645ZM8.605 22.645L8.46356 22.7864L8.46358 22.7864L8.605 22.645ZM9.93 21.32L10.0714 21.4614L10.2128 21.32L10.0714 21.1786L9.93 21.32ZM7.49938 20.3132V20.1132V20.3132ZM5.06875 21.32L4.92733 21.1786L4.78584 21.3201L4.9274 21.4615L5.06875 21.32ZM25.9375 23.75H25.7375V23.7501L25.9375 23.75ZM24.9313 21.3187L25.0728 21.1775L24.9314 21.0358L24.7898 21.1773L24.9313 21.3187ZM20 22.8125H20.2V22.6125H20V22.8125ZM20 24.6875V24.8875H20.2V24.6875H20ZM20.9375 23.75L21.1375 23.7504V23.75H20.9375ZM19.0625 23.75H19.2625V23.7499L19.0625 23.75ZM20.0688 26.1812L19.9272 26.3225L20.0686 26.4642L20.2102 26.3227L20.0688 26.1812ZM5.9375 23.75L6.1375 23.7504V23.75H5.9375ZM4.0625 23.75H4.2625V23.7499L4.0625 23.75ZM5.06875 26.1812L4.9272 26.3225L5.06862 26.4642L5.21017 26.3227L5.06875 26.1812ZM5.07 21.32L5.21142 21.1786L5.07017 21.0373L4.92875 21.1784L5.07 21.32ZM10 22.8125V22.6125H9.8V22.8125H10ZM10 24.6875H9.8V24.8875H10V24.6875ZM10.9375 23.75H10.7375V23.7501L10.9375 23.75ZM9.93125 21.3187L10.0728 21.1775L9.93138 21.0358L9.78983 21.1773L9.93125 21.3187ZM9.93 26.18L9.78858 26.3214L9.92983 26.4627L10.0713 26.3216L9.93 26.18ZM25 22.8125V22.6125H24.8V22.8125H25ZM25 24.6875H24.8V24.8875H25V24.6875ZM5 24.6875V24.8875H5.2V24.6875H5ZM5 22.8125H5.2V22.6125H5V22.8125ZM2.7 3.75V2.8125H2.3V3.75H2.7ZM2.5 2.6125C2.19832 2.6125 1.90899 2.73234 1.69567 2.94567L1.97851 3.22851C2.11682 3.0902 2.3044 3.0125 2.5 3.0125V2.6125ZM1.69567 2.94567C1.48234 3.15899 1.3625 3.44832 1.3625 3.75H1.7625C1.7625 3.5544 1.8402 3.36682 1.97851 3.22851L1.69567 2.94567ZM1.5625 3.95H2.5V3.55H1.5625V3.95ZM16.25 3.95H17.1875V3.55H16.25V3.95ZM17.3875 3.75C17.3875 3.44832 17.2677 3.15899 17.0543 2.94567L16.7715 3.22851C16.9098 3.36682 16.9875 3.5544 16.9875 3.75H17.3875ZM17.0543 2.94567C16.841 2.73234 16.5517 2.6125 16.25 2.6125V3.0125C16.4456 3.0125 16.6332 3.0902 16.7715 3.22851L17.0543 2.94567ZM16.05 2.8125V3.75H16.45V2.8125H16.05ZM16.45 11.25V10.3125H16.05V11.25H16.45ZM16.25 10.1125C15.9483 10.1125 15.659 10.2323 15.4457 10.4457L15.7285 10.7285C15.8668 10.5902 16.0544 10.5125 16.25 10.5125V10.1125ZM15.4457 10.4457C15.2323 10.659 15.1125 10.9483 15.1125 11.25H15.5125C15.5125 11.0544 15.5902 10.8668 15.7285 10.7285L15.4457 10.4457ZM15.3125 11.45H16.25V11.05H15.3125V11.45ZM2.5 4.8875H16.25V4.4875H2.5V4.8875ZM16.45 4.6875V2.8125H16.05V4.6875H16.45ZM16.25 2.6125H2.5V3.0125H16.25V2.6125ZM2.3 2.8125V4.6875H2.7V2.8125H2.3ZM15.1125 3.75V23.75H15.5125V3.75H15.1125ZM17.3875 23.75V3.75H16.9875V23.75H17.3875ZM17.1875 3.55H15.3125V3.95H17.1875V3.55ZM3.6375 21.25V3.75H3.2375V21.25H3.6375ZM3.4375 3.55H1.5625V3.95H3.4375V3.55ZM1.3625 3.75V21.25H1.7625V3.75H1.3625ZM16.25 12.3875H22.5V11.9875H16.25V12.3875ZM22.5 10.1125H16.25V10.5125H22.5V10.1125ZM16.05 10.3125V12.1875H16.45V10.3125H16.05ZM26.3625 16.25V21.25H26.7625V16.25H26.3625ZM28.6375 21.25V16.25H28.2375V21.25H28.6375ZM17.3875 23.75V11.25H16.9875V23.75H17.3875ZM17.1875 11.05H15.3125V11.45H17.1875V11.05ZM15.1125 11.25V23.75H15.5125V11.25H15.1125ZM23.4636 24.7136C23.337 24.8402 23.1868 24.9405 23.0215 25.009L23.1746 25.3786C23.3885 25.29 23.5828 25.1601 23.7464 24.9964L23.4636 24.7136ZM23.0215 25.009C22.8562 25.0775 22.679 25.1128 22.5 25.1128V25.5128C22.7315 25.5128 22.9607 25.4672 23.1746 25.3786L23.0215 25.009ZM22.5 25.1128C22.321 25.1128 22.1438 25.0775 21.9785 25.009L21.8254 25.3786C22.0393 25.4672 22.2685 25.5128 22.5 25.5128V25.1128ZM21.9785 25.009C21.8132 24.9405 21.663 24.8402 21.5364 24.7136L21.2536 24.9964C21.4172 25.1601 21.6116 25.29 21.8254 25.3786L21.9785 25.009ZM21.2536 24.7136L19.9286 26.0386L20.2114 26.3214L21.5364 24.9964L21.2536 24.7136ZM19.9286 26.3214C20.6107 27.0036 21.5359 27.3868 22.5006 27.3868V26.9868C21.642 26.9868 20.8186 26.6457 20.2114 26.0386L19.9286 26.3214ZM22.5006 27.3868C23.4653 27.3868 24.3905 27.0036 25.0727 26.3214L24.7898 26.0386C24.1827 26.6457 23.3592 26.9868 22.5006 26.9868V27.3868ZM21.5364 22.7864C21.663 22.6598 21.8132 22.5595 21.9785 22.491L21.8254 22.1214C21.6116 22.21 21.4172 22.3399 21.2536 22.5036L21.5364 22.7864ZM21.9785 22.491C22.1438 22.4225 22.321 22.3872 22.5 22.3872V21.9872C22.2685 21.9872 22.0393 22.0328 21.8254 22.1214L21.9785 22.491ZM22.5 22.3872C22.679 22.3872 22.8562 22.4225 23.0215 22.491L23.1746 22.1214C22.9607 22.0328 22.7315 21.9872 22.5 21.9872V22.3872ZM23.0215 22.491C23.1868 22.5595 23.337 22.6598 23.4636 22.7864L23.7464 22.5036C23.5828 22.3399 23.3885 22.21 23.1746 22.1214L23.0215 22.491ZM23.7464 22.7864L25.0714 21.4614L24.7886 21.1786L23.4636 22.5036L23.7464 22.7864ZM25.0714 21.1786C24.3893 20.4964 23.4641 20.1132 22.4994 20.1132V20.5132C23.358 20.5132 24.1814 20.8543 24.7886 21.4614L25.0714 21.1786ZM22.4994 20.1132C21.5347 20.1132 20.6095 20.4964 19.9273 21.1786L20.2102 21.4614C20.8173 20.8543 21.6408 20.5132 22.4994 20.5132V20.1132ZM8.46356 24.7136C8.33704 24.8402 8.18682 24.9405 8.02149 25.009L8.17459 25.3786C8.38845 25.29 8.58277 25.1601 8.74644 24.9964L8.46356 24.7136ZM8.02149 25.009C7.85616 25.0775 7.67896 25.1128 7.5 25.1128V25.5128C7.73149 25.5128 7.96072 25.4672 8.17459 25.3786L8.02149 25.009ZM7.5 25.1128C7.32104 25.1128 7.14384 25.0775 6.97851 25.009L6.82541 25.3786C7.03928 25.4672 7.26851 25.5128 7.5 25.5128V25.1128ZM6.97851 25.009C6.81318 24.9405 6.66296 24.8402 6.53644 24.7136L6.25356 24.9964C6.41723 25.1601 6.61155 25.29 6.82541 25.3786L6.97851 25.009ZM6.25358 24.7136L4.92858 26.0386L5.21142 26.3214L6.53642 24.9964L6.25358 24.7136ZM4.92858 26.3214C5.61074 27.0036 6.53593 27.3868 7.50063 27.3868V26.9868C6.64201 26.9868 5.81856 26.6457 5.21142 26.0386L4.92858 26.3214ZM7.50063 27.3868C8.46532 27.3868 9.39051 27.0036 10.0727 26.3214L9.78983 26.0386C9.18269 26.6457 8.35924 26.9868 7.50063 26.9868V27.3868ZM10.0726 26.0385L8.74636 24.7135L8.46365 24.9965L9.7899 26.3215L10.0726 26.0385ZM6.53644 22.7864C6.66296 22.6598 6.81318 22.5595 6.97851 22.491L6.82541 22.1214C6.61155 22.21 6.41723 22.3399 6.25356 22.5036L6.53644 22.7864ZM6.97851 22.491C7.14384 22.4225 7.32104 22.3872 7.5 22.3872V21.9872C7.26851 21.9872 7.03928 22.0328 6.82541 22.1214L6.97851 22.491ZM7.5 22.3872C7.67896 22.3872 7.85616 22.4225 8.02149 22.491L8.17459 22.1214C7.96072 22.0328 7.73149 21.9872 7.5 21.9872V22.3872ZM8.02149 22.491C8.18682 22.5595 8.33704 22.6598 8.46356 22.7864L8.74644 22.5036C8.58277 22.3399 8.38845 22.21 8.17459 22.1214L8.02149 22.491ZM8.74642 22.7864L10.0714 21.4614L9.78858 21.1786L8.46358 22.5036L8.74642 22.7864ZM10.0714 21.1786C9.38926 20.4964 8.46407 20.1132 7.49938 20.1132V20.5132C8.35799 20.5132 9.18144 20.8543 9.78858 21.4614L10.0714 21.1786ZM7.49938 20.1132C6.53468 20.1132 5.60949 20.4964 4.92733 21.1786L5.21017 21.4614C5.81731 20.8543 6.64076 20.5132 7.49938 20.5132V20.1132ZM4.9274 21.4615L6.25365 22.7865L6.53636 22.5035L5.21011 21.1785L4.9274 21.4615ZM23.4636 22.7864C23.7296 23.0524 23.8625 23.3997 23.8625 23.75H24.2625C24.2625 23.2978 24.0904 22.8476 23.7464 22.5036L23.4636 22.7864ZM26.1375 23.75C26.1375 22.8204 25.7817 21.8877 25.0728 21.1775L24.7897 21.46C25.4208 22.0923 25.7375 22.9221 25.7375 23.75H26.1375ZM24.7898 21.1773L23.4636 22.5036L23.7464 22.7864L25.0727 21.4602L24.7898 21.1773ZM23.8625 23.75C23.8625 24.1003 23.7296 24.4476 23.4636 24.7136L23.7464 24.9964C24.0904 24.6524 24.2625 24.2022 24.2625 23.75H23.8625ZM25.0725 26.3216C25.411 25.984 25.678 25.5831 25.8608 25.1421L25.4913 24.9889C25.3284 25.3818 25.0908 25.7384 24.79 26.0384L25.0725 26.3216ZM25.8608 25.1421C26.0438 24.7007 26.1378 24.2276 26.1375 23.7499L25.7375 23.7501C25.7378 24.1752 25.6541 24.5962 25.4913 24.9889L25.8608 25.1421ZM20 22.6125H16.25V23.0125H20V22.6125ZM16.25 24.8875H20V24.4875H16.25V24.8875ZM20.2 24.6875V22.8125H19.8V24.6875H20.2ZM21.5362 24.7133C21.4094 24.5871 21.309 24.437 21.2406 24.2717L20.871 24.4247C20.9596 24.6388 21.0897 24.8332 21.2538 24.9967L21.5362 24.7133ZM21.2406 24.2717C21.1721 24.1065 21.1371 23.9293 21.1375 23.7504L20.7375 23.7496C20.737 23.9812 20.7824 24.2107 20.871 24.4247L21.2406 24.2717ZM18.8625 23.75C18.8625 24.6796 19.2183 25.6123 19.9272 26.3225L20.2103 26.04C19.5792 25.4077 19.2625 24.5779 19.2625 23.75H18.8625ZM20.2102 26.3227L21.5364 24.9964L21.2536 24.7136L19.9273 26.0398L20.2102 26.3227ZM21.1375 23.75C21.1375 23.3997 21.2704 23.0524 21.5364 22.7864L21.2536 22.5036C20.9096 22.8476 20.7375 23.2978 20.7375 23.75H21.1375ZM19.9275 21.1784C19.589 21.516 19.3221 21.9169 19.1392 22.3579L19.5087 22.5111C19.6716 22.1182 19.9092 21.7616 20.21 21.4616L19.9275 21.1784ZM19.1392 22.3579C18.9562 22.7993 18.8622 23.2724 18.8625 23.7501L19.2625 23.7499C19.2622 23.3248 19.3459 22.9038 19.5087 22.5111L19.1392 22.3579ZM6.53616 24.7133C6.40945 24.5871 6.30898 24.437 6.24056 24.2717L5.87098 24.4247C5.9596 24.6388 6.08973 24.8332 6.25384 24.9967L6.53616 24.7133ZM6.24056 24.2717C6.17214 24.1065 6.13711 23.9293 6.1375 23.7504L5.7375 23.7496C5.737 23.9812 5.78236 24.2107 5.87098 24.4247L6.24056 24.2717ZM3.8625 23.75C3.8625 24.6796 4.21832 25.6123 4.9272 26.3225L5.2103 26.04C4.57918 25.4077 4.2625 24.5779 4.2625 23.75H3.8625ZM5.21017 26.3227L6.53642 24.9964L6.25358 24.7136L4.92733 26.0398L5.21017 26.3227ZM6.1375 23.75C6.1375 23.3997 6.27041 23.0524 6.53642 22.7864L6.25358 22.5036C5.90959 22.8476 5.7375 23.2978 5.7375 23.75H6.1375ZM6.53642 22.5036L5.21142 21.1786L4.92858 21.4614L6.25358 22.7864L6.53642 22.5036ZM4.92875 21.1784C4.59054 21.5158 4.32226 21.9167 4.13929 22.358L4.50879 22.5112C4.67159 22.1185 4.91031 21.7618 5.21125 21.4616L4.92875 21.1784ZM4.13929 22.358C3.95632 22.7993 3.86226 23.2724 3.8625 23.7501L4.2625 23.7499C4.26228 23.3248 4.34598 22.9039 4.50879 22.5112L4.13929 22.358ZM16.25 22.6125H10V23.0125H16.25V22.6125ZM9.8 22.8125V24.6875H10.2V22.8125H9.8ZM10 24.8875H16.25V24.4875H10V24.8875ZM8.46358 22.7864C8.72959 23.0524 8.8625 23.3997 8.8625 23.75H9.2625C9.2625 23.2978 9.09041 22.8476 8.74642 22.5036L8.46358 22.7864ZM11.1375 23.75C11.1375 22.8204 10.7817 21.8877 10.0728 21.1775L9.7897 21.46C10.4208 22.0923 10.7375 22.9221 10.7375 23.75H11.1375ZM9.78983 21.1773L8.46358 22.5036L8.74642 22.7864L10.0727 21.4602L9.78983 21.1773ZM8.8625 23.75C8.8625 24.1003 8.72959 24.4476 8.46358 24.7136L8.74642 24.9964C9.09041 24.6524 9.2625 24.2022 9.2625 23.75H8.8625ZM8.46358 24.9964L9.78858 26.3214L10.0714 26.0386L8.74642 24.7136L8.46358 24.9964ZM10.0713 26.3216C10.4095 25.9842 10.6777 25.5833 10.8607 25.142L10.4912 24.9888C10.3284 25.3815 10.0897 25.7382 9.78875 26.0384L10.0713 26.3216ZM10.8607 25.142C11.0437 24.7007 11.1377 24.2276 11.1375 23.7499L10.7375 23.7501C10.7377 24.1752 10.654 24.5961 10.4912 24.9888L10.8607 25.142ZM26.3625 21.25C26.3625 22.002 25.752 22.6125 25 22.6125V23.0125C25.973 23.0125 26.7625 22.223 26.7625 21.25H26.3625ZM24.8 22.8125V24.6875H25.2V22.8125H24.8ZM25 24.8875C25.9647 24.8875 26.8899 24.5043 27.5721 23.8221L27.2893 23.5393C26.6821 24.1464 25.8586 24.4875 25 24.4875V24.8875ZM27.5721 23.8221C28.2543 23.1399 28.6375 22.2147 28.6375 21.25H28.2375C28.2375 22.1086 27.8964 22.9321 27.2893 23.5393L27.5721 23.8221ZM22.5 12.3875C23.5244 12.3875 24.5068 12.7944 25.2312 13.5188L25.514 13.236C24.7147 12.4366 23.6305 11.9875 22.5 11.9875V12.3875ZM25.2312 13.5188C25.9556 14.2432 26.3625 15.2256 26.3625 16.25H26.7625C26.7625 15.1195 26.3134 14.0353 25.514 13.236L25.2312 13.5188ZM28.6375 16.25C28.6375 14.6222 27.9909 13.0611 26.8399 11.9101L26.557 12.193C27.633 13.269 28.2375 14.7283 28.2375 16.25H28.6375ZM26.8399 11.9101C25.6889 10.7591 24.1278 10.1125 22.5 10.1125V10.5125C24.0217 10.5125 25.481 11.117 26.557 12.193L26.8399 11.9101ZM1.3625 21.25C1.3625 22.2147 1.74574 23.1399 2.4279 23.8221L2.71074 23.5393C2.10359 22.9321 1.7625 22.1086 1.7625 21.25H1.3625ZM2.4279 23.8221C3.11006 24.5043 4.03528 24.8875 5 24.8875V24.4875C4.14136 24.4875 3.31789 24.1464 2.71074 23.5393L2.4279 23.8221ZM5.2 24.6875V22.8125H4.8V24.6875H5.2ZM5 22.6125C4.24796 22.6125 3.6375 22.002 3.6375 21.25H3.2375C3.2375 22.223 4.02704 23.0125 5 23.0125V22.6125Z" fill="#FEECF0" mask="url(#path-1-outside-1_738_5420)"/>
</svg>
