<svg width="26" height="20" viewBox="0 0 26 20" fill="none" xmlns="http://www.w3.org/2000/svg">
<path d="M12.6136 15.15H12.6758L12.7197 15.1061L14.3674 13.4583L14.4735 13.3523L14.3674 13.2462L12.2083 11.0871L12.1023 10.981L11.9962 11.0871L10.3485 12.7348L10.3045 12.7788V12.8409V13.6364V13.7864H10.4545H11.6682V15V15.15H11.8182H12.6136ZM16.5957 1.76111L16.5958 1.76079L16.5862 1.75827C16.357 1.69848 16.1312 1.66818 15.9091 1.66818H4.09091C3.42581 1.66818 2.85271 1.90675 2.37973 2.37973C1.90675 2.85271 1.66818 3.42581 1.66818 4.09091V15.9091C1.66818 16.5742 1.90675 17.1473 2.37973 17.6203C2.85271 18.0933 3.42581 18.3318 4.09091 18.3318H15.9091C16.5742 18.3318 17.1473 18.0933 17.6203 17.6203C18.0933 17.1473 18.3318 16.5742 18.3318 15.9091V14.1193C18.3318 14.035 18.3593 13.9693 18.4157 13.9129L19.3248 13.0038C19.3789 12.9497 19.4303 12.9232 19.479 12.9134C19.5279 12.9036 19.5869 12.9082 19.6602 12.9376C19.7336 12.9669 19.7783 13.0039 19.8055 13.0433C19.8325 13.0824 19.85 13.1352 19.85 13.2102V15.9091C19.85 16.996 19.4658 17.9215 18.6937 18.6937C17.9215 19.4658 16.996 19.85 15.9091 19.85H4.09091C3.00399 19.85 2.07854 19.4658 1.30635 18.6937C0.534158 17.9215 0.15 16.996 0.15 15.9091V4.09091C0.15 3.00399 0.534158 2.07854 1.30635 1.30635C2.07854 0.534158 3.00399 0.15 4.09091 0.15H15.9091C16.4852 0.15 17.0175 0.264149 17.5079 0.491177C17.6065 0.537299 17.6597 0.606134 17.6791 0.708614C17.6989 0.822034 17.6709 0.909531 17.5928 0.987684L16.8968 1.68371C16.8458 1.73464 16.7979 1.76096 16.7534 1.77209C16.7093 1.78312 16.6581 1.78188 16.5957 1.76111ZM18.9697 4.66666C18.8759 4.57285 18.7613 4.50868 18.6283 4.51271C18.4976 4.51667 18.3841 4.58557 18.2888 4.68087L13.3172 9.65246C13.2219 9.74775 13.153 9.86125 13.1491 9.99191C13.145 10.1249 13.2092 10.2395 13.303 10.3333C13.3968 10.4271 13.5115 10.4913 13.6445 10.4873C13.7751 10.4833 13.8886 10.4144 13.9839 10.3191L18.9555 5.34754C19.0508 5.25225 19.1197 5.13875 19.1237 5.00809C19.1277 4.87509 19.0635 4.76047 18.9697 4.66666ZM18.6364 2.9394L22.5151 6.81818L13.1197 16.2136H9.24091V12.3349L18.6364 2.9394ZM24.8371 4.49621L23.6364 5.69696L19.7576 1.81818L20.9583 0.61743C21.195 0.380728 21.4787 0.263636 21.8182 0.263636C22.1576 0.263636 22.4413 0.380728 22.678 0.61743L24.8371 2.77652C25.0738 3.01322 25.1909 3.2969 25.1909 3.63636C25.1909 3.97582 25.0738 4.25951 24.8371 4.49621Z" fill="#545BFC" stroke="white" stroke-width="0.3"/>
</svg>
