<svg width="30" height="29" viewBox="0 0 30 29" fill="none" xmlns="http://www.w3.org/2000/svg">
<path d="M23.4271 10.681C22.3919 6.91621 19.1614 4.27692 15.4248 4.27692C12.8193 4.27692 10.3921 5.56858 8.8146 7.76214C8.37923 7.6636 7.93395 7.61359 7.48719 7.61308C3.98123 7.61279 1.12793 10.6691 1.12793 14.4272C1.12793 15.7748 1.49687 17.0801 2.19316 18.2024C2.35684 18.4652 2.63259 18.6226 2.9275 18.6226H8.8031C8.84527 15.9358 11.0704 13.7698 13.8128 13.7698C16.5552 13.7698 18.7801 15.9358 18.8225 18.6226H26.769C27.0483 18.6226 27.3105 18.482 27.4777 18.2413C28.0572 17.4067 28.3661 16.4191 28.3637 15.4086C28.3634 12.6083 26.0586 10.342 23.4271 10.681Z" fill="#7E8299"/>
<path d="M16.9119 20.3957L13.9869 16.376C13.9607 16.3402 13.9262 16.311 13.8862 16.2908C13.8463 16.2707 13.8021 16.2601 13.7572 16.26H13.7566C13.6651 16.26 13.5802 16.3035 13.5268 16.3772L10.6207 20.3957C10.5908 20.4374 10.5731 20.4864 10.5695 20.5373C10.5659 20.5882 10.5766 20.6392 10.6004 20.6845C10.6488 20.7773 10.7461 20.8348 10.852 20.8348H12.2186V24.445C12.2186 24.5992 12.3454 24.7234 12.5011 24.7234H15.0315C15.1878 24.7234 15.314 24.5992 15.314 24.445V20.8348H16.6818C16.7337 20.8347 16.7845 20.8205 16.8287 20.7939C16.8729 20.7674 16.9089 20.7293 16.9326 20.684C16.9564 20.6387 16.967 20.5878 16.9633 20.537C16.9597 20.4862 16.9419 20.4373 16.9119 20.3957Z" fill="#7E8299"/>
</svg>
