<svg width="50" height="50" viewBox="0 0 50 50" fill="none" xmlns="http://www.w3.org/2000/svg">
<path fill-rule="evenodd" clip-rule="evenodd" d="M2.5 13.125C2.5 11.6332 3.09263 10.2024 4.14752 9.14752C5.20242 8.09263 6.63316 7.5 8.125 7.5H41.875C42.6137 7.5 43.3451 7.64549 44.0276 7.92818C44.7101 8.21086 45.3301 8.62519 45.8525 9.14752C46.3748 9.66985 46.7891 10.2899 47.0718 10.9724C47.3545 11.6549 47.5 12.3863 47.5 13.125V36.875C47.5 37.6137 47.3545 38.3451 47.0718 39.0276C46.7891 39.71 46.3748 40.3301 45.8525 40.8525C45.3301 41.3748 44.7101 41.7891 44.0276 42.0718C43.3451 42.3545 42.6137 42.5 41.875 42.5H8.125C6.63316 42.5 5.20242 41.9074 4.14752 40.8525C3.09263 39.7976 2.5 38.3668 2.5 36.875V13.125ZM6.25 27.65V36.875C6.25 37.91 7.09 38.75 8.125 38.75H41.875C42.3723 38.75 42.8492 38.5525 43.2008 38.2008C43.5525 37.8492 43.75 37.3723 43.75 36.875V30.15L38.2 24.6025C37.8484 24.2514 37.3719 24.0541 36.875 24.0541C36.3781 24.0541 35.9016 24.2514 35.55 24.6025L30.775 29.375L31.95 30.55C32.1342 30.7217 32.282 30.9287 32.3845 31.1587C32.4869 31.3887 32.542 31.6369 32.5465 31.8887C32.5509 32.1405 32.5046 32.3905 32.4103 32.624C32.316 32.8575 32.1756 33.0695 31.9976 33.2476C31.8195 33.4256 31.6075 33.566 31.374 33.6603C31.1405 33.7546 30.8905 33.8009 30.6387 33.7965C30.3869 33.792 30.1387 33.7369 29.9087 33.6345C29.6787 33.532 29.4717 33.3842 29.3 33.2L16.325 20.2275C15.9734 19.8764 15.4969 19.6791 15 19.6791C14.5031 19.6791 14.0266 19.8764 13.675 20.2275L6.25 27.65ZM30 17.5C30 18.163 29.7366 18.7989 29.2678 19.2678C28.7989 19.7366 28.163 20 27.5 20C26.837 20 26.2011 19.7366 25.7322 19.2678C25.2634 18.7989 25 18.163 25 17.5C25 16.837 25.2634 16.2011 25.7322 15.7322C26.2011 15.2634 26.837 15 27.5 15C28.163 15 28.7989 15.2634 29.2678 15.7322C29.7366 16.2011 30 16.837 30 17.5Z" fill="black"/>
</svg>
