<svg width="16" height="20" viewBox="0 0 16 20" fill="none" xmlns="http://www.w3.org/2000/svg">
<path d="M8.00001 0.767883C10.0318 0.767883 11.9803 1.57499 13.417 3.01166C14.8536 4.44832 15.6607 6.39685 15.6607 8.4286C15.6607 11.6657 13.3861 15.1936 8.89572 19.0499C8.64604 19.2644 8.3277 19.3822 7.99854 19.3819C7.66938 19.3816 7.35124 19.2632 7.10194 19.0483L6.80494 18.7906C2.51337 15.0349 0.339294 11.5935 0.339294 8.4286C0.339294 6.39685 1.1464 4.44832 2.58307 3.01166C4.01973 1.57499 5.96826 0.767883 8.00001 0.767883ZM8.00001 1.94645C6.28084 1.94645 4.63208 2.62939 3.41644 3.84503C2.2008 5.06067 1.51787 6.70943 1.51787 8.4286C1.51787 11.1802 3.51987 14.3505 7.57887 17.902L7.87194 18.1557C7.90757 18.1864 7.95301 18.2032 8.00001 18.2032C8.04701 18.2032 8.09245 18.1864 8.12808 18.1557C12.3835 14.5006 14.4822 11.2454 14.4822 8.4286C14.4822 7.57735 14.3145 6.73444 13.9887 5.94799C13.663 5.16154 13.1855 4.44695 12.5836 3.84503C11.9817 3.24311 11.2671 2.76564 10.4806 2.43988C9.69417 2.11412 8.85126 1.94645 8.00001 1.94645ZM8.00001 5.48217C8.78145 5.48217 9.53089 5.7926 10.0835 6.34516C10.636 6.89772 10.9464 7.64716 10.9464 8.4286C10.9464 9.21004 10.636 9.95948 10.0835 10.512C9.53089 11.0646 8.78145 11.375 8.00001 11.375C7.21857 11.375 6.46913 11.0646 5.91657 10.512C5.36401 9.95948 5.05358 9.21004 5.05358 8.4286C5.05358 7.64716 5.36401 6.89772 5.91657 6.34516C6.46913 5.7926 7.21857 5.48217 8.00001 5.48217ZM8.00001 6.66074C7.53114 6.66074 7.08148 6.847 6.74995 7.17853C6.41841 7.51007 6.23215 7.95973 6.23215 8.4286C6.23215 8.89746 6.41841 9.34713 6.74995 9.67866C7.08148 10.0102 7.53114 10.1965 8.00001 10.1965C8.46887 10.1965 8.91854 10.0102 9.25007 9.67866C9.58161 9.34713 9.76787 8.89746 9.76787 8.4286C9.76787 7.95973 9.58161 7.51007 9.25007 7.17853C8.91854 6.847 8.46887 6.66074 8.00001 6.66074Z" fill="black"/>
</svg>
