<svg width="50" height="43" viewBox="0 0 50 43" fill="none" xmlns="http://www.w3.org/2000/svg">
<g filter="url(#filter0_d_146_2386)">
<mask id="path-1-inside-1_146_2386" fill="white">
<path fill-rule="evenodd" clip-rule="evenodd" d="M20.1779 30.1494C20.1779 30.1845 20.1775 30.2196 20.1768 30.2545H28.793C28.7923 30.2196 28.7919 30.1845 28.7919 30.1494C28.7919 27.1905 31.1906 24.7918 34.1495 24.7918C37.0364 24.7918 39.39 27.0752 39.5029 29.9344C40.8526 29.5537 42.0574 28.8335 43.1172 27.7737C44.7724 26.1185 45.6 24.1091 45.6 21.7454C45.6013 19.5722 44.8846 17.6737 43.45 16.05C42.0155 14.4264 40.2109 13.4885 38.0364 13.2364C38.0376 9.55035 36.7537 6.42279 34.1846 3.85367C31.6155 1.28456 28.4873 0 24.8 0C21.8061 0 19.1273 0.898182 16.7636 2.69455C14.4 4.49091 12.8242 6.83879 12.0364 9.73818C9.64121 10.2739 7.70303 11.503 6.22182 13.4255C4.74061 15.3479 4 17.5382 4 19.9964C3.99874 22.8642 5.01479 25.2909 7.04815 27.2764C7.82516 28.0351 8.6631 28.6488 9.56198 29.1176C10.0429 26.6524 12.2143 24.7918 14.8203 24.7918C17.7792 24.7918 20.1779 27.1905 20.1779 30.1494Z"/>
</mask>
<path d="M20.1768 30.2545L19.177 30.2353L19.1574 31.2545H20.1768V30.2545ZM28.793 30.2545V31.2545H29.8124L29.7928 30.2353L28.793 30.2545ZM39.5029 29.9344L38.5036 29.9739L38.5536 31.2412L39.7743 30.8969L39.5029 29.9344ZM43.1172 27.7737L42.4101 27.0666L42.4101 27.0666L43.1172 27.7737ZM45.6 21.7454L44.6 21.7449V21.7454H45.6ZM43.45 16.05L44.1994 15.3879V15.3879L43.45 16.05ZM38.0364 13.2364L37.0364 13.236L37.0361 14.1271L37.9212 14.2297L38.0364 13.2364ZM34.1846 3.85367L34.8917 3.14657L34.1846 3.85367ZM16.7636 2.69455L16.1586 1.89838V1.89838L16.7636 2.69455ZM12.0364 9.73818L12.2547 10.7141L12.8432 10.5824L13.0014 10.0004L12.0364 9.73818ZM6.22182 13.4255L7.01396 14.0358L6.22182 13.4255ZM4 19.9964L5 19.9968V19.9964H4ZM7.04815 27.2764L6.34952 27.9918H6.34952L7.04815 27.2764ZM9.56198 29.1176L9.09957 30.0043L10.287 30.6235L10.5435 29.3091L9.56198 29.1176ZM21.1767 30.2738C21.1775 30.2324 21.1779 30.1909 21.1779 30.1494H19.1779C19.1779 30.1781 19.1776 30.2068 19.177 30.2353L21.1767 30.2738ZM28.793 29.2545H20.1768V31.2545H28.793V29.2545ZM29.7928 30.2353C29.7922 30.2068 29.7919 30.1781 29.7919 30.1494H27.7919C27.7919 30.1909 27.7923 30.2324 27.7931 30.2738L29.7928 30.2353ZM29.7919 30.1494C29.7919 27.7428 31.7429 25.7918 34.1495 25.7918V23.7918C30.6383 23.7918 27.7919 26.6382 27.7919 30.1494H29.7919ZM34.1495 25.7918C36.4973 25.7918 38.4119 27.649 38.5036 29.9739L40.5021 29.895C40.3682 26.5014 37.5755 23.7918 34.1495 23.7918V25.7918ZM42.4101 27.0666C41.4627 28.014 40.4052 28.6409 39.2314 28.972L39.7743 30.8969C41.3001 30.4666 42.6521 29.653 43.8243 28.4808L42.4101 27.0666ZM44.6 21.7454C44.6 23.8468 43.8757 25.601 42.4101 27.0666L43.8243 28.4808C45.6691 26.636 46.6 24.3714 46.6 21.7454H44.6ZM42.7006 16.7122C43.973 18.1523 44.6011 19.8148 44.6 21.7449L46.6 21.746C46.6014 19.3295 45.7962 17.1951 44.1994 15.3879L42.7006 16.7122ZM37.9212 14.2297C39.8535 14.4537 41.4313 15.2755 42.7006 16.7122L44.1994 15.3879C42.5997 13.5773 40.5683 12.5232 38.1515 12.243L37.9212 14.2297ZM33.4775 4.56078C35.8559 6.93924 37.0375 9.81102 37.0364 13.236L39.0364 13.2367C39.0377 9.28968 37.6515 5.90634 34.8917 3.14657L33.4775 4.56078ZM24.8 1C28.2265 1 31.099 2.18231 33.4775 4.56078L34.8917 3.14657C32.1319 0.386808 28.7481 -1 24.8 -1V1ZM17.3687 3.49071C19.5568 1.82779 22.0226 1 24.8 1V-1C21.5895 -1 18.6978 -0.0314283 16.1586 1.89838L17.3687 3.49071ZM13.0014 10.0004C13.7322 7.31103 15.1829 5.15192 17.3687 3.49071L16.1586 1.89838C13.6171 3.8299 11.9163 6.36654 11.0714 9.47595L13.0014 10.0004ZM7.01396 14.0358C8.35074 12.3008 10.0848 11.1994 12.2547 10.7141L11.8181 8.7623C9.19762 9.34845 7.05532 10.7052 5.42968 12.8151L7.01396 14.0358ZM5 19.9964C5 17.7559 5.66939 15.7809 7.01396 14.0358L5.42968 12.8151C3.81182 14.9149 3 17.3204 3 19.9964H5ZM7.74677 26.5609C5.90822 24.7656 4.99886 22.598 5 19.9968L3 19.9959C2.99862 23.1305 4.12136 25.8162 6.34952 27.9918L7.74677 26.5609ZM10.0244 28.2309C9.21816 27.8105 8.45881 27.2561 7.74677 26.5609L6.34952 27.9918C7.1915 28.814 8.10805 29.4872 9.09957 30.0043L10.0244 28.2309ZM14.8203 23.7918C11.7268 23.7918 9.15131 26.0003 8.58048 28.9261L10.5435 29.3091C10.9346 27.3045 12.7019 25.7918 14.8203 25.7918V23.7918ZM21.1779 30.1494C21.1779 26.6382 18.3315 23.7918 14.8203 23.7918V25.7918C17.2269 25.7918 19.1779 27.7428 19.1779 30.1494H21.1779Z" fill="black" mask="url(#path-1-inside-1_146_2386)"/>
<mask id="path-3-inside-2_146_2386" fill="white">
<path fill-rule="evenodd" clip-rule="evenodd" d="M14.8201 34.6667C17.3149 34.6667 19.3373 32.6443 19.3373 30.1495C19.3373 27.6547 17.3149 25.6323 14.8201 25.6323C12.3254 25.6323 10.303 27.6547 10.303 30.1495C10.303 32.6443 12.3254 34.6667 14.8201 34.6667ZM14.8203 32.3555C16.0387 32.3555 17.0263 31.3678 17.0263 30.1495C17.0263 28.9311 16.0387 27.9434 14.8203 27.9434C13.6019 27.9434 12.6142 28.9311 12.6142 30.1495C12.6142 31.3678 13.6019 32.3555 14.8203 32.3555Z"/>
</mask>
<path d="M18.3373 30.1495C18.3373 32.092 16.7626 33.6667 14.8201 33.6667V35.6667C17.8672 35.6667 20.3373 33.1965 20.3373 30.1495H18.3373ZM14.8201 26.6323C16.7626 26.6323 18.3373 28.207 18.3373 30.1495H20.3373C20.3373 27.1024 17.8672 24.6323 14.8201 24.6323V26.6323ZM11.303 30.1495C11.303 28.207 12.8777 26.6323 14.8201 26.6323V24.6323C11.7731 24.6323 9.30298 27.1024 9.30298 30.1495H11.303ZM14.8201 33.6667C12.8777 33.6667 11.303 32.092 11.303 30.1495H9.30298C9.30298 33.1965 11.7731 35.6667 14.8201 35.6667V33.6667ZM16.0263 30.1495C16.0263 30.8156 15.4864 31.3555 14.8203 31.3555V33.3555C16.5909 33.3555 18.0263 31.9201 18.0263 30.1495H16.0263ZM14.8203 28.9434C15.4864 28.9434 16.0263 29.4834 16.0263 30.1495H18.0263C18.0263 28.3788 16.5909 26.9434 14.8203 26.9434V28.9434ZM13.6142 30.1495C13.6142 29.4834 14.1542 28.9434 14.8203 28.9434V26.9434C13.0496 26.9434 11.6142 28.3788 11.6142 30.1495H13.6142ZM14.8203 31.3555C14.1542 31.3555 13.6142 30.8156 13.6142 30.1495H11.6142C11.6142 31.9201 13.0496 33.3555 14.8203 33.3555V31.3555Z" fill="black" mask="url(#path-3-inside-2_146_2386)"/>
<mask id="path-5-inside-3_146_2386" fill="white">
<path fill-rule="evenodd" clip-rule="evenodd" d="M34.1495 34.6667C36.6443 34.6667 38.6667 32.6443 38.6667 30.1495C38.6667 27.6547 36.6443 25.6323 34.1495 25.6323C31.6547 25.6323 29.6323 27.6547 29.6323 30.1495C29.6323 32.6443 31.6547 34.6667 34.1495 34.6667ZM34.1495 32.3555C35.3679 32.3555 36.3556 31.3678 36.3556 30.1495C36.3556 28.9311 35.3679 27.9434 34.1495 27.9434C32.9312 27.9434 31.9435 28.9311 31.9435 30.1495C31.9435 31.3678 32.9312 32.3555 34.1495 32.3555Z"/>
</mask>
<path d="M37.6667 30.1495C37.6667 32.092 36.092 33.6667 34.1495 33.6667V35.6667C37.1965 35.6667 39.6667 33.1965 39.6667 30.1495H37.6667ZM34.1495 26.6323C36.092 26.6323 37.6667 28.207 37.6667 30.1495H39.6667C39.6667 27.1024 37.1965 24.6323 34.1495 24.6323V26.6323ZM30.6323 30.1495C30.6323 28.207 32.207 26.6323 34.1495 26.6323V24.6323C31.1024 24.6323 28.6323 27.1024 28.6323 30.1495H30.6323ZM34.1495 33.6667C32.207 33.6667 30.6323 32.092 30.6323 30.1495H28.6323C28.6323 33.1965 31.1024 35.6667 34.1495 35.6667V33.6667ZM35.3556 30.1495C35.3556 30.8156 34.8156 31.3555 34.1495 31.3555V33.3555C35.9202 33.3555 37.3556 31.9201 37.3556 30.1495H35.3556ZM34.1495 28.9434C34.8156 28.9434 35.3556 29.4834 35.3556 30.1495H37.3556C37.3556 28.3788 35.9202 26.9434 34.1495 26.9434V28.9434ZM32.9435 30.1495C32.9435 29.4834 33.4834 28.9434 34.1495 28.9434V26.9434C32.3789 26.9434 30.9435 28.3788 30.9435 30.1495H32.9435ZM34.1495 31.3555C33.4834 31.3555 32.9435 30.8156 32.9435 30.1495H30.9435C30.9435 31.9201 32.3789 33.3555 34.1495 33.3555V31.3555Z" fill="black" mask="url(#path-5-inside-3_146_2386)"/>
</g>
<defs>
<filter id="filter0_d_146_2386" x="0" y="0" width="49.6001" height="42.6666" filterUnits="userSpaceOnUse" color-interpolation-filters="sRGB">
<feFlood flood-opacity="0" result="BackgroundImageFix"/>
<feColorMatrix in="SourceAlpha" type="matrix" values="0 0 0 0 0 0 0 0 0 0 0 0 0 0 0 0 0 0 127 0" result="hardAlpha"/>
<feOffset dy="4"/>
<feGaussianBlur stdDeviation="2"/>
<feComposite in2="hardAlpha" operator="out"/>
<feColorMatrix type="matrix" values="0 0 0 0 0 0 0 0 0 0 0 0 0 0 0 0 0 0 0.25 0"/>
<feBlend mode="normal" in2="BackgroundImageFix" result="effect1_dropShadow_146_2386"/>
<feBlend mode="normal" in="SourceGraphic" in2="effect1_dropShadow_146_2386" result="shape"/>
</filter>
</defs>
</svg>
