<svg width="30" height="20" viewBox="0 0 30 20" fill="none" xmlns="http://www.w3.org/2000/svg">
<path d="M0.833336 18.5071C0.833336 19.2862 1.46517 19.9166 2.24292 19.9166H13.5904C13.9643 19.9166 14.3228 19.7681 14.5871 19.5038C14.8515 19.2394 15 18.8809 15 18.5071C15 18.1332 14.8515 17.7747 14.5871 17.5103C14.3228 17.246 13.9643 17.0975 13.5904 17.0975H2.24292C1.46375 17.0975 0.833336 17.7279 0.833336 18.5071ZM0.833336 9.99998C0.833336 10.7791 1.46517 11.4096 2.24292 11.4096H27.7571C28.1309 11.4096 28.4895 11.2611 28.7538 10.9967C29.0182 10.7324 29.1667 10.3738 29.1667 9.99998C29.1667 9.62614 29.0182 9.2676 28.7538 9.00325C28.4895 8.73891 28.1309 8.5904 27.7571 8.5904H2.24292C1.46375 8.5904 0.833336 9.22223 0.833336 9.99998ZM2.24292 2.90248C1.86908 2.90248 1.51054 2.75397 1.24619 2.48962C0.981848 2.22527 0.833336 1.86674 0.833336 1.4929C0.833336 1.11905 0.981848 0.760518 1.24619 0.49617C1.51054 0.231822 1.86908 0.083313 2.24292 0.083313H19.2571C19.4422 0.083313 19.6255 0.119773 19.7965 0.190611C19.9675 0.261449 20.1229 0.365278 20.2538 0.49617C20.3847 0.627062 20.4885 0.782454 20.5594 0.953472C20.6302 1.12449 20.6667 1.30779 20.6667 1.4929C20.6667 1.67801 20.6302 1.8613 20.5594 2.03232C20.4885 2.20334 20.3847 2.35873 20.2538 2.48962C20.1229 2.62051 19.9675 2.72434 19.7965 2.79518C19.6255 2.86602 19.4422 2.90248 19.2571 2.90248H2.24292Z" fill="white"/>
</svg>
