<svg width="84" height="84" viewBox="0 0 84 84" fill="none" xmlns="http://www.w3.org/2000/svg">
<g clip-path="url(#clip0_786_5950)">
<path d="M18 42V26.22C18.0469 23.1182 18.7053 20.0561 19.9376 17.2092C21.1699 14.3623 22.9519 11.7866 25.1814 9.62953C27.4109 7.4725 30.0441 5.77659 32.9301 4.63897C35.8162 3.50136 38.8983 2.9444 42 3C45.1017 2.9444 48.1838 3.50136 51.0699 4.63897C53.9559 5.77659 56.5891 7.4725 58.8186 9.62953C61.0481 11.7866 62.8301 14.3623 64.0624 17.2092C65.2947 20.0561 65.9531 23.1182 66 26.22V42M54 73.5C57.1826 73.5 60.2348 72.2357 62.4853 69.9853C64.7357 67.7348 66 64.6826 66 61.5V48M54 73.5C54 75.4891 53.2098 77.3968 51.8033 78.8033C50.3968 80.2098 48.4891 81 46.5 81H37.5C35.5109 81 33.6032 80.2098 32.1967 78.8033C30.7902 77.3968 30 75.4891 30 73.5C30 71.5109 30.7902 69.6032 32.1967 68.1967C33.6032 66.7902 35.5109 66 37.5 66H46.5C48.4891 66 50.3968 66.7902 51.8033 68.1967C53.2098 69.6032 54 71.5109 54 73.5ZM9 33H15C15.7956 33 16.5587 33.3161 17.1213 33.8787C17.6839 34.4413 18 35.2044 18 36V54C18 54.7956 17.6839 55.5587 17.1213 56.1213C16.5587 56.6839 15.7956 57 15 57H9C7.4087 57 5.88258 56.3679 4.75736 55.2426C3.63214 54.1174 3 52.5913 3 51V39C3 37.4087 3.63214 35.8826 4.75736 34.7574C5.88258 33.6321 7.4087 33 9 33ZM75 57H69C68.2044 57 67.4413 56.6839 66.8787 56.1213C66.3161 55.5587 66 54.7956 66 54V36C66 35.2044 66.3161 34.4413 66.8787 33.8787C67.4413 33.3161 68.2044 33 69 33H75C76.5913 33 78.1174 33.6321 79.2426 34.7574C80.3679 35.8826 81 37.4087 81 39V51C81 52.5913 80.3679 54.1174 79.2426 55.2426C78.1174 56.3679 76.5913 57 75 57Z" stroke="#7E8299" stroke-width="6" stroke-linecap="round" stroke-linejoin="round"/>
</g>
<defs>
<clipPath id="clip0_786_5950">
<rect width="84" height="84" fill="white"/>
</clipPath>
</defs>
</svg>
