<svg width="29" height="29" viewBox="0 0 29 29" fill="none" xmlns="http://www.w3.org/2000/svg">
<path opacity="0.2" d="M18.125 14.5C18.125 13.783 17.9124 13.0822 17.5141 12.4861C17.1158 11.8899 16.5496 11.4253 15.8872 11.1509C15.2248 10.8766 14.496 10.8048 13.7928 10.9447C13.0896 11.0845 12.4437 11.4298 11.9367 11.9367C11.4298 12.4437 11.0845 13.0896 10.9447 13.7928C10.8048 14.496 10.8766 15.2248 11.1509 15.8872C11.4253 16.5496 11.8899 17.1158 12.4861 17.5141C13.0822 17.9124 13.783 18.125 14.5 18.125C15.4614 18.125 16.3834 17.7431 17.0633 17.0633C17.7431 16.3834 18.125 15.4614 18.125 14.5ZM22.6562 21.75C22.8481 20.618 23.3874 19.5736 24.1992 18.7617C25.0111 17.9499 26.0555 17.4106 27.1875 17.2188V21.75H22.6562ZM22.6562 7.25H27.1875V11.7812C26.0555 11.5894 25.0111 11.0501 24.1992 10.2383C23.3874 9.42636 22.8481 8.38204 22.6562 7.25ZM1.8125 11.7812V7.25H6.34375C6.15188 8.38204 5.61264 9.42636 4.80075 10.2383C3.98886 11.0501 2.94454 11.5894 1.8125 11.7812ZM1.8125 17.2188C2.94454 17.4106 3.98886 17.9499 4.80075 18.7617C5.61264 19.5736 6.15188 20.618 6.34375 21.75H1.8125V17.2188Z" fill="white"/>
<path d="M14.5 19.0312C13.6038 19.0312 12.7277 18.7655 11.9826 18.2676C11.2374 17.7697 10.6566 17.062 10.3137 16.234C9.97071 15.4061 9.88098 14.495 10.0558 13.616C10.2307 12.737 10.6622 11.9296 11.2959 11.2959C11.9296 10.6622 12.737 10.2307 13.616 10.0558C14.495 9.88098 15.4061 9.97071 16.234 10.3137C17.062 10.6566 17.7697 11.2374 18.2676 11.9826C18.7655 12.7277 19.0312 13.6038 19.0312 14.5C19.0312 15.7018 18.5539 16.8543 17.7041 17.7041C16.8543 18.5539 15.7018 19.0312 14.5 19.0312ZM14.5 11.7812C13.9623 11.7812 13.4366 11.9407 12.9895 12.2394C12.5424 12.5382 12.194 12.9628 11.9882 13.4596C11.7824 13.9564 11.7286 14.503 11.8335 15.0304C11.9384 15.5578 12.1973 16.0422 12.5776 16.4224C12.9578 16.8027 13.4422 17.0616 13.9696 17.1665C14.497 17.2714 15.0436 17.2176 15.5404 17.0118C16.0372 16.806 16.4618 16.4576 16.7606 16.0105C17.0593 15.5634 17.2188 15.0377 17.2188 14.5C17.2188 13.7789 16.9323 13.0874 16.4224 12.5776C15.9126 12.0677 15.2211 11.7812 14.5 11.7812ZM27.1875 22.6562H1.8125C1.57215 22.6562 1.34164 22.5608 1.17168 22.3908C1.00173 22.2209 0.90625 21.9904 0.90625 21.75V7.25C0.90625 7.00965 1.00173 6.77914 1.17168 6.60918C1.34164 6.43923 1.57215 6.34375 1.8125 6.34375H27.1875C27.4279 6.34375 27.6584 6.43923 27.8283 6.60918C27.9983 6.77914 28.0938 7.00965 28.0938 7.25V21.75C28.0938 21.9904 27.9983 22.2209 27.8283 22.3908C27.6584 22.5608 27.4279 22.6562 27.1875 22.6562ZM2.71875 20.8438H5.13957C4.67216 19.7567 3.80575 18.8903 2.71875 18.4229V20.8438ZM2.71875 8.15625V10.5771C3.80575 10.1097 4.67216 9.24325 5.13957 8.15625H2.71875ZM26.2812 8.15625H23.8604C24.3278 9.24325 25.1942 10.1097 26.2812 10.5771V8.15625ZM26.2812 12.5006C25.2522 12.1963 24.3156 11.6394 23.5569 10.8806C22.7981 10.1219 22.2412 9.18529 21.9369 8.15625H7.06309C6.75882 9.18529 6.20193 10.1219 5.44315 10.8806C4.68436 11.6394 3.74779 12.1963 2.71875 12.5006V16.4994C3.74779 16.8037 4.68436 17.3606 5.44315 18.1194C6.20193 18.8781 6.75882 19.8147 7.06309 20.8438H21.9369C22.2412 19.8147 22.7981 18.8781 23.5569 18.1194C24.3156 17.3606 25.2522 16.8037 26.2812 16.4994V12.5006ZM26.2812 18.4229C25.1942 18.8903 24.3278 19.7567 23.8604 20.8438H26.2812V18.4229Z" fill="white"/>
</svg>
