<svg width="14" height="12" viewBox="0 0 14 12" fill="none" xmlns="http://www.w3.org/2000/svg">
<path fill-rule="evenodd" clip-rule="evenodd" d="M5.51865 12H8.48131C10.562 12 11.6026 12 12.35 11.51C12.6724 11.2987 12.9502 11.0259 13.1673 10.7073C13.6666 9.974 13.6666 8.952 13.6666 6.90933C13.6666 4.866 13.6666 3.84467 13.1673 3.11133C12.9502 2.79274 12.6725 2.52 12.35 2.30867C11.87 1.99333 11.2686 1.88067 10.348 1.84067C9.90865 1.84067 9.53065 1.514 9.44465 1.09067C9.37892 0.78058 9.20816 0.502691 8.96121 0.303968C8.71426 0.105244 8.40628 -0.00212706 8.08931 5.02965e-07H5.91065C5.25198 5.02965e-07 4.68465 0.456667 4.55531 1.09067C4.46931 1.514 4.09131 1.84067 3.65198 1.84067C2.73198 1.88067 2.13065 1.994 1.64998 2.30867C1.32773 2.52004 1.05023 2.79278 0.833313 3.11133C0.333313 3.84467 0.333313 4.866 0.333313 6.90933C0.333313 8.952 0.333313 9.97333 0.832646 10.7073C1.04865 11.0247 1.32598 11.2973 1.64998 11.51C2.39731 12 3.43798 12 5.51865 12ZM6.99998 4.182C5.46598 4.182 4.22198 5.40267 4.22198 6.90867C4.22198 8.41533 5.46598 9.636 6.99998 9.636C8.53398 9.636 9.77798 8.41533 9.77798 6.90933C9.77798 5.40267 8.53398 4.182 6.99998 4.182ZM6.99998 5.27267C6.07998 5.27267 5.33331 6.00533 5.33331 6.90933C5.33331 7.81267 6.07998 8.54533 6.99998 8.54533C7.91998 8.54533 8.66665 7.81267 8.66665 6.90933C8.66665 6.00533 7.91998 5.27267 6.99998 5.27267ZM10.148 4.72733C10.148 4.426 10.3966 4.182 10.704 4.182H11.444C11.7506 4.182 12 4.426 12 4.72733C11.9986 4.87327 11.9393 5.01267 11.8352 5.11492C11.731 5.21717 11.5906 5.27391 11.4446 5.27267H10.704C10.6317 5.27337 10.5599 5.25982 10.4928 5.2328C10.4258 5.20577 10.3647 5.1658 10.313 5.11516C10.2614 5.06452 10.2202 5.00421 10.1919 4.93766C10.1636 4.87112 10.1487 4.79965 10.148 4.72733Z" fill="#34A853"/>
</svg>
