<svg width="54" height="54" viewBox="0 0 54 54" fill="none" xmlns="http://www.w3.org/2000/svg">
<path d="M36 54H30V48H36V54ZM30 33H24V48H30V33ZM54 27H48V39H54V27ZM48 21H42V27H48V21ZM12 27H6V33H12V27ZM6 21H0V27H6V21ZM27 6H33V0H27V6ZM4.5 4.5V13.5H13.5V4.5H4.5ZM18 18H0V0H18V18ZM4.5 40.5V49.5H13.5V40.5H4.5ZM18 54H0V36H18V54ZM40.5 4.5V13.5H49.5V4.5H40.5ZM54 18H36V0H54V18ZM48 48V39H36V45H42V54H54V48H48ZM42 27H30V33H42V27ZM30 21H12V27H18V33H24V27H30V21ZM33 18V12H27V6H21V18H33ZM11.25 6.75H6.75V11.25H11.25V6.75ZM11.25 42.75H6.75V47.25H11.25V42.75ZM47.25 6.75H42.75V11.25H47.25V6.75Z" fill="black"/>
</svg>
