<svg width="25" height="25" viewBox="0 0 25 25" fill="none" xmlns="http://www.w3.org/2000/svg">
<path d="M23.0469 5.46875C21.968 5.46875 21.0938 6.34336 21.0938 7.42188C21.0938 7.64336 21.1387 7.85234 21.2062 8.05078L16.4453 12.1504C16.1113 11.8844 15.6945 11.7188 15.2344 11.7188C14.7035 11.7188 14.2235 11.932 13.8719 12.2758L10.1426 10.4086C10.0699 9.3957 9.2344 8.59375 8.20312 8.59375C7.12463 8.59375 6.25 9.46836 6.25 10.5469C6.25 10.8422 6.32031 11.1191 6.4375 11.3699L2.63516 15.7543C2.42188 15.6746 2.19414 15.625 1.95312 15.625C0.874609 15.625 0 16.4996 0 17.5781C0 18.6566 0.874609 19.5312 1.95312 19.5312C3.03164 19.5312 3.90625 18.6566 3.90625 17.5781C3.90625 17.3184 3.85313 17.0711 3.76094 16.8445L7.625 12.4031C7.80898 12.4602 8.00039 12.5 8.20312 12.5C8.77148 12.5 9.27849 12.2531 9.63552 11.8652L13.2832 13.6941C13.2961 14.7621 14.1633 15.625 15.2344 15.625C16.3133 15.625 17.1875 14.7504 17.1875 13.6719C17.1875 13.6371 17.1793 13.6047 17.1773 13.5703L22.2578 9.20586C22.4996 9.31289 22.7652 9.375 23.0469 9.375C24.1258 9.375 25 8.50078 25 7.42188C25 6.34336 24.1258 5.46875 23.0469 5.46875Z" fill="white"/>
</svg>
