<svg width="56" height="56" viewBox="0 0 56 56" fill="none" xmlns="http://www.w3.org/2000/svg">
<path fill-rule="evenodd" clip-rule="evenodd" d="M16.3333 4.66666C13.2391 4.66666 10.2716 5.89582 8.08371 8.08374C5.89579 10.2717 4.66663 13.2391 4.66663 16.3333V39.6667C4.66663 42.7609 5.89579 45.7283 8.08371 47.9162C10.2716 50.1042 13.2391 51.3333 16.3333 51.3333H39.6666C42.7608 51.3333 45.7283 50.1042 47.9162 47.9162C50.1041 45.7283 51.3333 42.7609 51.3333 39.6667V16.3333C51.3333 13.2391 50.1041 10.2717 47.9162 8.08374C45.7283 5.89582 42.7608 4.66666 39.6666 4.66666H16.3333ZM36.7033 24.9293C36.9129 24.7056 37.0764 24.4429 37.1844 24.156C37.2924 23.8691 37.3429 23.5638 37.3329 23.2574C37.323 22.9511 37.2528 22.6496 37.1263 22.3704C36.9999 22.0912 36.8196 21.8396 36.596 21.63C36.3723 21.4204 36.1095 21.2569 35.8226 21.1489C35.5358 21.0409 35.2304 20.9904 34.9241 21.0003C34.6177 21.0103 34.3163 21.0805 34.037 21.207C33.7578 21.3334 33.5062 21.5136 33.2966 21.7373L26.103 29.414L22.5493 26.257C22.0837 25.8699 21.4859 25.679 20.8821 25.7246C20.2784 25.7701 19.716 26.0486 19.3137 26.5011C18.9115 26.9536 18.7009 27.5448 18.7264 28.1497C18.752 28.7547 19.0117 29.326 19.4506 29.743L24.7006 34.4097C25.1549 34.8132 25.7487 35.0236 26.3556 34.9961C26.9626 34.9687 27.535 34.7055 27.951 34.2627L36.7033 24.9293Z" fill="#50CD89"/>
</svg>
